<svg width="35" height="32" viewBox="0 0 35 32" fill="none" xmlns="http://www.w3.org/2000/svg">
<path d="M1.55005 1.95001L1.99023 2.10478C4.1836 2.87592 5.28029 3.2615 5.90757 4.17943C6.53485 5.09738 6.53485 6.31667 6.53485 8.75525V13.3416C6.53485 18.2986 6.64142 19.9344 8.10143 21.4745C9.56144 23.0144 11.9113 23.0144 16.6111 23.0144H18.4015M25.5472 23.0144C28.1777 23.0144 29.493 23.0144 30.4227 22.2567C31.3524 21.4991 31.618 20.2109 32.149 17.6345L32.9912 13.5485C33.5761 10.6179 33.8685 9.15262 33.1205 8.18014C32.3724 7.20767 29.8164 7.20767 26.9769 7.20767H16.756M6.53485 7.20767H9.97579" stroke="#D7FBD3" stroke-width="2.52772" stroke-linecap="round"/>
<path d="M4.07777 25.0144C5.4738 25.0144 6.60549 26.1461 6.60549 27.5421C6.60549 28.9381 5.4738 30.0698 4.07777 30.0698C2.68174 30.0698 1.55005 28.9381 1.55005 27.5421C1.55005 26.1461 2.68174 25.0144 4.07777 25.0144Z" stroke="#D7FBD3" stroke-width="2.52772"/>
<path d="M17.9832 25.0144C19.3791 25.0144 20.5109 26.146 20.5109 27.5421C20.5109 28.9381 19.3791 30.0698 17.9832 30.0698C16.5872 30.0698 15.4554 28.9381 15.4554 27.5421C15.4554 26.146 16.5872 25.0144 17.9832 25.0144Z" stroke="#D7FBD3" stroke-width="2.52772"/>
</svg>
