<svg width="24" height="24" viewBox="0 0 24 24" fill="none" xmlns="http://www.w3.org/2000/svg">
<g clip-path="url(#clip0_1_67)">
<path fill-rule="evenodd" clip-rule="evenodd" d="M16.9013 12.405C16.6088 12.6975 16.134 12.6975 15.8408 12.405L12.75 9.30753V17.25C12.75 17.6625 12.4147 18 12 18C11.5853 18 11.25 17.6625 11.25 17.25V9.30753L8.15925 12.405C7.866 12.6975 7.3905 12.6975 7.09875 12.405C6.8055 12.105 6.8055 11.6325 7.09875 11.34L11.3408 7.09497C11.5208 6.91497 11.7668 6.86247 12 6.90747C12.2332 6.86247 12.4792 6.91497 12.6592 7.09497L16.9013 11.34C17.1945 11.6325 17.1945 12.105 16.9013 12.405ZM12 0C5.37225 0 0 5.37 0 12C0 18.63 5.37225 24 12 24C18.6277 24 24 18.63 24 12C24 5.37 18.6277 0 12 0Z" fill="#030303"/>
</g>
<defs>
<clipPath id="clip0_1_67">
<rect width="24" height="24" fill="white"/>
</clipPath>
</defs>
</svg>
