<svg width="24" height="24" viewBox="0 0 24 24" fill="none" xmlns="http://www.w3.org/2000/svg">
<g clip-path="url(#clip0_1_67)">
<path fill-rule="evenodd" clip-rule="evenodd" d="M7.09875 11.595C7.39125 11.3025 7.866 11.3025 8.15925 11.595L11.25 14.6925L11.25 6.75C11.25 6.3375 11.5853 6 12 6C12.4148 6 12.75 6.3375 12.75 6.75L12.75 14.6925L15.8408 11.595C16.134 11.3025 16.6095 11.3025 16.9013 11.595C17.1945 11.895 17.1945 12.3675 16.9013 12.66L12.6592 16.905C12.4792 17.085 12.2333 17.1375 12 17.0925C11.7668 17.1375 11.5208 17.085 11.3408 16.905L7.09875 12.66C6.8055 12.3675 6.8055 11.895 7.09875 11.595ZM12 24C18.6277 24 24 18.63 24 12C24 5.37 18.6278 -4.69657e-07 12 -1.04907e-06C5.37225 -1.62849e-06 1.62869e-06 5.37 1.04907e-06 12C4.6946e-07 18.63 5.37225 24 12 24Z" fill="#030303"/>
</g>
<defs>
<clipPath id="clip0_1_67">
<rect width="24" height="24" fill="white" transform="translate(24 24) rotate(-180)"/>
</clipPath>
</defs>
</svg>
