<svg width="36" height="32" viewBox="0 0 36 32" fill="none" xmlns="http://www.w3.org/2000/svg">
<path d="M2 2L2.44018 2.15476C4.63355 2.9259 5.73024 3.31148 6.35752 4.22942C6.9848 5.14737 6.9848 6.36666 6.9848 8.80523V13.3916C6.9848 18.3486 7.09137 19.9844 8.55138 21.5245C10.0114 23.0643 12.3613 23.0644 17.061 23.0644H18.8515M25.9972 23.0644C28.6277 23.0644 29.943 23.0643 30.8727 22.3067C31.8023 21.5491 32.0679 20.2609 32.5989 17.6845L33.4412 13.5985C34.0261 10.6679 34.3184 9.20261 33.5704 8.23013C32.8224 7.25766 30.2663 7.25766 27.4269 7.25766H17.2059M6.9848 7.25766H10.4257" stroke="black" stroke-width="2.52772" stroke-linecap="round"/>
<path d="M4.52772 25.0643C5.92375 25.0643 7.05544 26.1961 7.05544 27.5921C7.05544 28.988 5.92375 30.1198 4.52772 30.1198C3.13169 30.1198 2 28.988 2 27.5921C2 26.1961 3.13169 25.0643 4.52772 25.0643Z" stroke="black" stroke-width="2.52772"/>
<path d="M18.4331 25.0643C19.8291 25.0643 20.9608 26.1959 20.9608 27.5921C20.9608 28.988 19.8291 30.1198 18.4331 30.1198C17.0371 30.1198 15.9054 28.988 15.9054 27.5921C15.9054 26.1959 17.0371 25.0643 18.4331 25.0643Z" stroke="black" stroke-width="2.52772"/>
</svg>
