<svg width="28" height="28" viewBox="0 0 28 28" fill="none" xmlns="http://www.w3.org/2000/svg">
<path d="M8.98788 20.9268C9.93434 20.9268 10.7016 21.694 10.7016 22.6405C10.7016 23.5869 9.93434 24.3542 8.98788 24.3542C8.04142 24.3542 7.27417 23.5869 7.27417 22.6405C7.27417 21.694 8.04142 20.9268 8.98788 20.9268Z" stroke="black" stroke-width="1.71371"/>
<path d="M19.2702 20.9269C20.2167 20.9269 20.9839 21.6941 20.9839 22.6406C20.9839 23.587 20.2167 24.3543 19.2702 24.3543C18.3238 24.3543 17.5565 23.587 17.5565 22.6406C17.5565 21.6941 18.3238 20.9269 19.2702 20.9269Z" stroke="black" stroke-width="1.71371"/>
<path d="M2.70435 3.78967L3.00277 3.8946C4.4898 4.4174 5.23332 4.67881 5.6586 5.30114C6.08387 5.92348 6.08387 6.75012 6.08387 8.40339V11.5128C6.08387 14.8735 6.15612 15.9825 7.14596 17.0266C8.1358 18.0706 9.72892 18.0706 12.9152 18.0706H14.1291M18.9736 18.0706C20.757 18.0706 21.6487 18.0706 22.279 17.5569C22.9093 17.0433 23.0894 16.17 23.4494 14.4232L24.0204 11.653C24.4169 9.6662 24.6152 8.6728 24.108 8.01349C23.6009 7.35419 21.868 7.35419 19.9429 7.35419H13.0135M6.08387 7.35419H8.41671" stroke="black" stroke-width="1.71371" stroke-linecap="round"/>
</svg>
