<svg width="800" height="800" viewBox="0 0 800 800" fill="none" xmlns="http://www.w3.org/2000/svg">
<g clip-path="url(#clip0_77_43)">
<path d="M666.667 166.667C685.077 166.667 700 181.591 700 200C700 218.409 685.077 233.333 666.667 233.333H633.337L633.25 235.71L602.127 671.417C599.637 706.303 570.607 733.333 535.63 733.333H264.372C229.396 733.333 200.367 706.303 197.875 671.417L166.753 235.71C166.696 234.913 166.667 234.12 166.667 233.333H133.333C114.924 233.333 100 218.409 100 200C100 181.591 114.924 166.667 133.333 166.667H666.667ZM466.667 66.6667C485.077 66.6667 500 81.5907 500 100C500 118.409 485.077 133.333 466.667 133.333H333.333C314.924 133.333 300 118.409 300 100C300 81.5907 314.924 66.6667 333.333 66.6667H466.667Z" fill="black"/>
</g>
<defs>
<clipPath id="clip0_77_43">
<rect width="800" height="800" fill="white"/>
</clipPath>
</defs>
</svg>
