<svg width="28" height="28" viewBox="0 0 28 28" fill="none" xmlns="http://www.w3.org/2000/svg">
<path d="M3.88156 11.0729C3.29033 7.77404 5.47531 4.91643 8.8813 4.64652C11.8803 4.41089 13.3669 8.04395 13.6668 8.73801C13.6702 8.74964 13.6772 8.75988 13.6869 8.76717C13.6965 8.77446 13.7083 8.7784 13.7204 8.7784C13.7325 8.7784 13.7443 8.77446 13.7539 8.76717C13.7636 8.75988 13.7706 8.74964 13.7739 8.73801C15.1663 4.92072 17.7026 4.75791 18.5938 4.66795C20.993 4.41089 24.2104 6.26598 23.5635 10.5888C22.6381 16.5868 13.6583 23.3602 13.6583 23.3602C13.6583 23.3602 5.05116 17.5208 3.88156 11.0729Z" stroke="black" stroke-width="1.28528"/>
</svg>
