<svg width="32" height="31" viewBox="0 0 32 31" fill="none" xmlns="http://www.w3.org/2000/svg">
<path d="M1.71726 11.0951C0.845198 6.22927 4.06804 2.01429 9.09189 1.61618C13.5154 1.26862 15.7082 6.62739 16.1506 7.65111C16.1555 7.66828 16.1658 7.68338 16.1801 7.69413C16.1943 7.70489 16.2117 7.7107 16.2295 7.7107C16.2474 7.7107 16.2648 7.70489 16.279 7.69413C16.2933 7.68338 16.3036 7.66828 16.3085 7.65111C18.3623 2.02061 22.1033 1.78048 23.4178 1.64778C26.9566 1.26862 31.7024 4.00488 30.7482 10.3811C29.3832 19.2281 16.1379 29.2189 16.1379 29.2189C16.1379 29.2189 3.44243 20.6057 1.71726 11.0951Z" stroke="black" stroke-width="1.89579"/>
</svg>
