<svg width="31" height="29" viewBox="0 0 31 29" fill="none" xmlns="http://www.w3.org/2000/svg">
<path d="M0.717263 10.0951C-0.154802 5.22927 3.06804 1.01429 8.09189 0.616179C12.5154 0.268617 14.7082 5.62739 15.1506 6.65111C15.1555 6.66828 15.1658 6.68338 15.1801 6.69413C15.1943 6.70489 15.2117 6.7107 15.2295 6.7107C15.2474 6.7107 15.2648 6.70489 15.279 6.69413C15.2933 6.68338 15.3036 6.66828 15.3085 6.65111C17.3623 1.02061 21.1033 0.780481 22.4178 0.647775C25.9566 0.268617 30.7024 3.00488 29.7482 9.38105C28.3832 18.2281 15.1379 28.2189 15.1379 28.2189C15.1379 28.2189 2.44243 19.6057 0.717263 10.0951Z" fill="#D7FBD3" stroke="black"/>
</svg>
