<svg width="24" height="24" viewBox="0 0 24 24" fill="none" xmlns="http://www.w3.org/2000/svg">
<path d="M22.0001 12.2039V13.725C22.0001 17.6258 22.0001 19.5763 20.8285 20.7881C19.657 22 17.7713 22 14.0001 22H10.0001C6.22882 22 4.34321 22 3.17163 20.7881C2.00006 19.5763 2.00006 17.6258 2.00006 13.725V12.2039C2.00006 9.91546 2.00006 8.77125 2.51926 7.82271C3.03846 6.87418 3.98701 6.28548 5.88409 5.1081L7.88409 3.86684C9.88945 2.62226 10.8922 1.99997 12.0001 1.99997C13.108 1.99997 14.1107 2.62226 16.1161 3.86684L18.1161 5.10809C20.0132 6.28548 20.9617 6.87418 21.4809 7.82271" stroke="#B9B9B9" stroke-width="1.71371" stroke-linecap="round"/>
<path d="M15.0001 18H9.00006" stroke="#B9B9B9" stroke-width="1.71371" stroke-linecap="round"/>
</svg>
