<svg width="49" height="49" viewBox="0 0 49 49" fill="none" xmlns="http://www.w3.org/2000/svg">
<g clip-path="url(#clip0_69_30)">
<path d="M24.8513 0C11.5384 0 0.707275 10.8331 0.707275 24.1473C0.707275 37.4606 11.5386 48.2927 24.8513 48.2927C38.165 48.2927 48.9963 37.4606 48.9963 24.1473C48.9963 10.8331 38.1659 0 24.8513 0ZM35.9342 27.156H27.1231H26.242C28.5963 27.156 26.2582 27.156 25.1234 27.156C23.991 27.156 21.3222 27.156 23.8274 27.156H23.3699H13.7712C12.6361 27.156 11.7185 26.4139 11.7185 25.2796C11.7185 24.1454 12.6361 23.4028 13.7712 23.4028H23.3697L23.8274 23.4029C25.1234 23.4029 23.991 23.4029 25.1234 23.4029C26.2582 23.4029 26.242 23.4029 26.242 23.4029H27.123H35.934C37.069 23.4029 37.9871 24.1455 37.9871 25.2798C37.9871 26.414 37.0692 27.156 35.9342 27.156Z" fill="black"/>
</g>
<defs>
<clipPath id="clip0_69_30">
<rect width="48.2927" height="48.2927" fill="white" transform="translate(0.707275)"/>
</clipPath>
</defs>
</svg>
