<svg width="141" height="141" viewBox="0 0 141 141" fill="none" xmlns="http://www.w3.org/2000/svg">
<g clip-path="url(#clip0_53_14)">
<path fill-rule="evenodd" clip-rule="evenodd" d="M31.2648 52.285C24.0369 60.7733 17.1067 71.2995 17.0372 79.1675C17.0102 82.1278 17.9553 84.7122 20.2222 86.6697C23.4846 89.4889 27.0792 90.483 30.6562 90.4888C35.8835 90.4961 41.0742 88.3872 45.1383 86.7611C51.9829 84.0239 127.644 51.1673 127.644 51.1673C128.374 50.8016 128.237 50.3458 127.323 50.5733C126.955 50.6655 44.9547 72.8876 44.9547 72.8876C43.4015 73.3269 41.7966 73.5566 40.1825 73.5708C33.8806 73.6081 28.273 70.1101 28.3184 62.7388C28.3359 59.8545 29.2188 56.3763 31.2648 52.285Z" fill="white"/>
</g>
<defs>
<clipPath id="clip0_53_14">
<rect width="141" height="141" fill="white"/>
</clipPath>
</defs>
</svg>
