<svg width="49" height="49" viewBox="0 0 49 49" fill="none" xmlns="http://www.w3.org/2000/svg">
<g clip-path="url(#clip0_69_24)">
<path d="M24.1461 -6.10352e-05C10.8332 -6.10352e-05 0.0020752 10.8331 0.0020752 24.1473C0.0020752 37.4606 10.8334 48.2926 24.1461 48.2926C37.4598 48.2926 48.2911 37.4606 48.2911 24.1473C48.2911 10.8331 37.4607 -6.10352e-05 24.1461 -6.10352e-05ZM35.229 27.156H26.4179V35.2294C26.4179 36.3628 25.6758 37.2798 24.5411 37.2798C23.4087 37.2798 22.6647 36.3617 22.6647 35.2294V27.156H13.066C11.9309 27.156 11.0133 26.4138 11.0133 25.2796C11.0133 24.1453 11.9309 23.4027 13.066 23.4027H22.6645V13.063C22.6645 11.9287 23.4085 11.0104 24.5409 11.0104C25.6756 11.0104 26.4178 11.9289 26.4178 13.063V23.4029H35.2288C36.3638 23.4029 37.2819 24.1455 37.2819 25.2797C37.2819 26.414 36.364 27.156 35.229 27.156Z" fill="black"/>
</g>
<defs>
<clipPath id="clip0_69_24">
<rect width="48.2927" height="48.2927" fill="white"/>
</clipPath>
</defs>
</svg>
