<svg width="24" height="24" viewBox="0 0 24 24" fill="none" xmlns="http://www.w3.org/2000/svg">
<g clip-path="url(#clip0_1_73)">
<path fill-rule="evenodd" clip-rule="evenodd" d="M10.6756 0.202637C8.56434 0.203305 6.50066 0.829985 4.74551 2.00344C2.99037 3.17689 1.62258 4.84442 0.815084 6.79519C0.0075925 8.74595 -0.203338 10.8924 0.208963 12.963C0.621264 15.0336 1.63828 16.9355 3.13142 18.4282C4.62456 19.9209 6.52678 20.9373 8.59754 21.3489C10.6683 21.7606 12.8146 21.549 14.7652 20.7408C16.7157 19.9327 18.3828 18.5644 19.5557 16.8089C20.7286 15.0534 21.3546 12.9895 21.3546 10.8782C21.3532 8.0467 20.2276 5.3316 18.2251 3.32973C16.2226 1.32787 13.5071 0.203084 10.6756 0.202637ZM10.6756 1.89141C12.453 1.89141 14.1906 2.41848 15.6684 3.40596C17.1463 4.39344 18.2982 5.79699 18.9784 7.43911C19.6585 9.08124 19.8365 10.8882 19.4898 12.6315C19.143 14.3747 18.2871 15.976 17.0303 17.2328C15.7734 18.4897 14.1721 19.3456 12.4289 19.6923C10.6856 20.0391 8.87865 19.8611 7.23652 19.1809C5.5944 18.5008 4.19085 17.3489 3.20337 15.871C2.21589 14.3931 1.68882 12.6556 1.68882 10.8782C1.68994 8.49511 2.63712 6.20993 4.32223 4.52482C6.00734 2.83971 8.29252 1.89253 10.6756 1.89141Z" fill="#B9B9B9"/>
<path fill-rule="evenodd" clip-rule="evenodd" d="M23.7535 22.361L18.4541 17.0616C18.3762 16.981 18.2831 16.9167 18.18 16.8724C18.077 16.8282 17.9662 16.8049 17.8541 16.8039C17.742 16.8029 17.6308 16.8243 17.527 16.8667C17.4233 16.9092 17.329 16.9719 17.2497 17.0512C17.1704 17.1305 17.1077 17.2247 17.0653 17.3285C17.0228 17.4323 17.0014 17.5435 17.0024 17.6556C17.0034 17.7677 17.0267 17.8785 17.0709 17.9815C17.1152 18.0845 17.1795 18.1777 17.2602 18.2556L22.5595 23.5524C22.6374 23.6331 22.7306 23.6974 22.8336 23.7417C22.9366 23.7859 23.0474 23.8092 23.1596 23.8102C23.2717 23.8112 23.3829 23.7898 23.4866 23.7473C23.5904 23.7049 23.6847 23.6422 23.764 23.5629C23.8432 23.4836 23.9059 23.3893 23.9484 23.2856C23.9909 23.1818 24.0122 23.0706 24.0112 22.9585C24.0103 22.8464 23.987 22.7356 23.9427 22.6326C23.8985 22.5295 23.8341 22.4364 23.7535 22.3585V22.361Z" fill="#B9B9B9"/>
</g>
<defs>
<clipPath id="clip0_1_73">
<rect width="24" height="24" fill="white"/>
</clipPath>
</defs>
</svg>
